<svg width="594" height="120" viewBox="0 0 594 120" fill="none" xmlns="http://www.w3.org/2000/svg">
<path d="M182.16 98.24V56.96H192.96V43.76H182.16V37.04C182.16 30.2 185.28 27.92 190.92 27.92C193.56 27.92 195.84 28.4 195.84 28.4V14.72C195.84 14.72 193.08 14 188.04 14C172.32 14 164.88 21.2 164.88 35.36V43.76H157.92V56.96H164.88V98.24H182.16ZM219.48 98.24V14.24H202.2V98.24H219.48Z" fill="#28323C"/>
<path d="M289.622 71C289.622 51.92 275.942 42.32 260.102 42.32C244.262 42.32 230.582 51.92 230.582 71C230.582 90.08 244.262 99.68 260.102 99.68C275.942 99.68 289.622 90.08 289.622 71ZM260.102 85.76C253.622 85.76 248.102 81.44 248.102 71C248.102 60.56 253.622 56.24 260.102 56.24C266.582 56.24 272.102 60.56 272.102 71C272.102 81.44 266.582 85.76 260.102 85.76Z" fill="#28323C"/>
<path d="M365.182 98.24L382.582 43.76H364.222L354.862 79.04L344.902 43.76H331.462L321.502 79.04L312.142 43.76H293.782L311.182 98.24H328.822L338.182 65.84L347.542 98.24H365.182Z" fill="#28323C"/>
<path d="M407.896 77.36C413.296 79.4 416.776 80.84 416.776 83.6C416.776 86.48 412.936 87.44 409.216 87.44C399.016 87.44 394.456 80.36 394.456 80.36L386.416 89.72C386.416 89.72 392.536 99.68 410.296 99.68C425.176 99.68 433.336 92.6 433.336 82.64C433.336 73.16 426.016 68.36 418.696 65.6L413.896 63.8C406.216 60.92 405.136 59.84 405.136 57.92C405.136 56.12 406.216 54.08 411.976 54.08C421.936 54.08 426.376 60.2 426.376 60.2L432.856 50.12C432.856 50.12 426.736 42.32 411.016 42.32C396.856 42.32 388.456 48.68 388.456 58.88C388.456 68.12 395.296 72.56 402.856 75.44L407.896 77.36Z" fill="#28323C"/>
<path d="M476.914 84.08C474.994 85.28 473.314 85.76 471.394 85.76C468.274 85.76 465.154 84.56 465.154 78.8V56.96H477.634V43.76H465.154V27.68H447.874V43.76H440.914V56.96H447.874V82.4C447.874 94.4 454.714 99.68 465.034 99.68C473.434 99.68 478.594 96.2 480.754 94.4L476.914 84.08Z" fill="#28323C"/>
<path d="M540.296 75.92C540.296 75.92 540.536 73.4 540.536 70.64C540.536 52.28 529.496 42.32 514.376 42.32C499.736 42.32 485.816 51.8 485.816 71.24C485.816 90.08 498.776 99.68 515.096 99.68C531.176 99.68 538.496 90.44 539.096 89.6L529.736 81.68C528.536 83.36 523.856 86.72 516.176 86.72C509.456 86.72 504.536 84.08 503.096 75.92H540.296ZM503.096 65.12C504.296 58.16 507.896 54.56 513.776 54.56C519.896 54.56 523.496 58.4 523.496 65.12H503.096Z" fill="#28323C"/>
<path d="M568.669 98.24V70.52C568.669 61.64 572.389 57.56 577.789 57.56C582.349 57.56 585.709 60.44 585.709 60.44L593.389 49.04C591.229 45.2 587.269 42.8 582.109 42.8C576.229 42.8 571.069 45.92 568.669 51.44L567.469 43.76H551.389V98.24H568.669Z" fill="#28323C"/>
<path d="M119.98 43.5889C120.153 52.8475 119.203 62.5512 116.96 72.0769C116.01 76.083 114.802 80.1782 111.091 82.5819C106.345 85.6087 102.893 83.6502 102.807 78.0416C102.634 66.3793 102.979 54.628 100.908 43.0547C100.563 41.2742 100.131 39.5828 99.5272 37.8913C96.7657 30.3242 91.5877 27.3863 83.9071 29.0778C75.9675 30.8583 68.891 34.8644 61.9008 38.8706C57.2406 41.5413 52.8394 44.5682 48.1792 47.2389C44.2094 49.5536 42.3972 48.4853 42.052 43.7669C41.7068 39.4937 43.0875 35.8437 46.0217 32.9059C60.6926 18.6619 77.6935 8.06789 96.7657 1.30199C107.122 -2.34804 113.594 1.74711 116.614 12.6972C119.29 22.579 120.066 32.8169 119.98 43.5889Z" fill="#FF466E"/>
<path d="M98.9734 78.6648C98.7123 86.8204 99.4086 94.0894 98.103 101.27C97.8419 102.6 97.6679 103.929 97.4067 105.17C94.0993 119.177 87.0491 122.988 73.7323 117.758C56.8468 111.198 41.0928 102.6 27.4278 90.3662C23.3369 86.7317 20.2906 82.5653 21.161 76.626C21.7703 72.105 23.3369 71.3071 27.3407 73.4347C34.4779 77.3351 41.528 81.3243 48.7522 85.2247C53.1041 87.6182 57.7172 89.3911 62.5043 90.6322C71.9044 92.937 77.3008 89.8344 80.0861 80.5264C81.7398 74.9417 82.3491 69.2683 82.5232 63.5062C82.6972 55.7939 82.6102 48.1703 82.6972 40.458C82.7843 36.2916 84.8732 34.9619 88.6158 36.8235C92.8807 39.0396 95.1437 42.9401 96.4493 47.4611C99.2345 58.0987 99.0605 68.825 98.9734 78.6648Z" fill="#2DD2F0"/>
<path d="M60.7613 81C56.1052 80.8278 51.2766 78.847 46.5342 76.8663C34.3766 71.6992 23.2536 64.5514 12.2168 57.3175C8.94027 55.1645 6.09485 52.581 3.68056 49.4807C-1.66537 42.7635 -1.14802 36.8213 4.97393 30.8791C18.2525 17.9614 34.0317 9.09121 51.1041 2.20174C55.0705 0.565493 59.0368 -0.209572 63.2618 0.0487833C64.8139 0.134902 66.3659 0.393257 67.7455 1.25444C69.47 2.28786 71.2807 3.32128 71.2807 5.73259C71.2807 8.05779 69.3838 8.31614 68.0042 9.17733C58.8644 14.775 49.2934 19.856 40.9296 26.6593C28.5995 36.6491 28.6857 45.4331 41.3608 55.1645C49.5521 61.4511 58.6919 66.446 67.7455 71.2686C69.5562 72.2159 72.3154 72.3882 71.9705 75.4023C71.7118 78.072 69.3838 78.9332 67.3144 79.9666C65.4174 80.9139 63.4343 80.9139 60.7613 81Z" fill="#288CBE"/>
</svg>
