<svg width="256" height="256" viewBox="0 0 256 256" fill="none" xmlns="http://www.w3.org/2000/svg">
<path d="M207.974 106.119C208.204 118.463 206.938 131.402 203.946 144.103C202.681 149.444 201.07 154.904 196.122 158.109C189.793 162.145 185.191 159.534 185.075 152.055C184.845 136.506 185.306 120.837 182.544 105.406C182.084 103.032 181.508 100.777 180.703 98.5217C177.021 88.4322 170.117 84.5151 159.876 86.7704C149.29 89.1444 139.855 94.4859 130.534 99.8274C124.321 103.388 118.452 107.424 112.239 110.985C106.946 114.071 104.53 112.647 104.069 106.356C103.609 100.658 105.45 95.7916 109.362 91.8745C128.923 72.8825 151.591 58.7572 177.021 49.736C190.829 44.8693 199.459 50.3295 203.486 64.9296C207.053 78.1053 208.089 91.7558 207.974 106.119Z" fill="#FF466E"/>
<path d="M179.965 152.886C179.616 163.76 180.545 173.453 178.804 183.026C178.456 184.799 178.224 186.572 177.876 188.227C173.466 206.902 164.066 211.984 146.31 205.011C123.796 196.264 102.79 184.799 84.5703 168.488C79.1159 163.642 75.0541 158.087 76.2146 150.168C77.027 144.14 79.1159 143.076 84.4543 145.913C93.9705 151.114 103.371 156.432 113.003 161.633C118.806 164.824 124.956 167.188 131.339 168.843C143.873 171.916 151.068 167.779 154.781 155.369C156.986 147.922 157.799 140.358 158.031 132.675C158.263 122.392 158.147 112.227 158.263 101.944C158.379 96.3888 161.164 94.6158 166.154 97.098C171.841 100.053 174.858 105.253 176.599 111.281C180.313 125.465 180.081 139.767 179.965 152.886Z" fill="#2DD2F0"/>
<path d="M129.015 156C122.807 155.77 116.369 153.129 110.046 150.488C93.8354 143.599 79.0048 134.069 64.2891 124.423C59.9204 121.553 56.1265 118.108 52.9074 113.974C45.7795 105.018 46.4693 97.0951 54.6319 89.1722C72.3367 71.9485 93.3755 60.1216 116.139 50.9357C121.427 48.754 126.716 47.7206 132.349 48.065C134.419 48.1799 136.488 48.5243 138.327 49.6726C140.627 51.0505 143.041 52.4284 143.041 55.6435C143.041 58.7437 140.512 59.0882 138.672 60.2364C126.486 67.7 113.725 74.4747 102.573 83.5458C86.1327 96.8654 86.2476 108.578 103.148 121.553C114.069 129.935 126.256 136.595 138.327 143.025C140.742 144.288 144.421 144.518 143.961 148.536C143.616 152.096 140.512 153.244 137.753 154.622C135.223 155.885 132.579 155.885 129.015 156Z" fill="#288CBE"/>
</svg>
